{
  "accessors": [
    {
      "bufferView": 2,
      "componentType": 5126,
      "count": 65532,
      "max": [
        0.4280500113964081,
        0.49340999126434326,
        0.2780100107192993
      ],
      "min": [
        -0.5270900130271912,
        -0.3522999882698059,
        -0.17566999793052673
      ],
      "type": "VEC3"
    },
    {
      "bufferView": 2,
      "byteOffset": 786384,
      "componentType": 5126,
      "count": 65532,
      "max": [
        0.999853789806366,
        0.999993622303009,
        0.999873697757721
      ],
      "min": [
        -0.9999472498893738,
        -0.999916672706604,
        -0.9999718070030212
      ],
      "type": "VEC3"
    },
    {
      "bufferView": 1,
      "componentType": 5126,
      "count": 65532,
      "max": [
        0.9719799757003784,
        0.9967300295829773
      ],
      "min": [
        0.0033499998971819878,
        0.0033400000538676977
      ],
      "type": "VEC2"
    },
    {
      "bufferView": 0,
      "componentType": 5125,
      "count": 357801,
      "type": "SCALAR"
    },
    {
      "bufferView": 2,
      "byteOffset": 1572768,
      "componentType": 5126,
      "count": 62015,
      "max": [
        0.7704399824142456,
        0.5031800270080566,
        0.34071001410484314
      ],
      "min": [
        -0.5271300077438354,
        -0.35221999883651733,
        -0.1315300017595291
      ],
      "type": "VEC3"
    },
    {
      "bufferView": 2,
      "byteOffset": 2316948,
      "componentType": 5126,
      "count": 62015,
      "max": [
        0.9999483227729797,
        0.9999962449073792,
        0.9999989867210388
      ],
      "min": [
        -0.9999766945838928,
        -0.9999920725822449,
        -0.9999951720237732
      ],
      "type": "VEC3"
    },
    {
      "bufferView": 1,
      "byteOffset": 524256,
      "componentType": 5126,
      "count": 62015,
      "max": [
        0.9917200207710266,
        0.9974600076675415
      ],
      "min": [
        0.005960000213235617,
        0.004519999958574772
      ],
      "type": "VEC2"
    },
    {
      "bufferView": 0,
      "byteOffset": 1431204,
      "componentType": 5125,
      "count": 321519,
      "type": "SCALAR"
    },
    {
      "bufferView": 2,
      "byteOffset": 3061128,
      "componentType": 5126,
      "count": 65532,
      "max": [
        0.771809995174408,
        0.36419999599456787,
        0.3100999891757965
      ],
      "min": [
        -0.5271300077438354,
        -0.3347100019454956,
        -0.17678000032901764
      ],
      "type": "VEC3"
    },
    {
      "bufferView": 2,
      "byteOffset": 3847512,
      "componentType": 5126,
      "count": 65532,
      "max": [
        0.999979555606842,
        0.9999626278877258,
        0.9999940991401672
      ],
      "min": [
        -0.9996108412742615,
        -0.9999590516090393,
        -0.9999914765357971
      ],
      "type": "VEC3"
    },
    {
      "bufferView": 1,
      "byteOffset": 1020376,
      "componentType": 5126,
      "count": 65532,
      "max": [
        0.9975600242614746,
        0.9981399774551392
      ],
      "min": [
        0.003269999986514449,
        0.0037799999117851257
      ],
      "type": "VEC2"
    },
    {
      "bufferView": 0,
      "byteOffset": 2717280,
      "componentType": 5125,
      "count": 349497,
      "type": "SCALAR"
    },
    {
      "bufferView": 2,
      "byteOffset": 4633896,
      "componentType": 5126,
      "count": 38276,
      "max": [
        0.771809995174408,
        0.508679986000061,
        0.3084299862384796
      ],
      "min": [
        -0.5271300077438354,
        -0.3139199912548065,
        -0.15259000658988953
      ],
      "type": "VEC3"
    },
    {
      "bufferView": 2,
      "byteOffset": 5093208,
      "componentType": 5126,
      "count": 38276,
      "max": [
        0.999726414680481,
        0.9999998211860657,
        0.9999788403511047
      ],
      "min": [
        -0.999797523021698,
        -0.9995883703231812,
        -0.9999351501464844
      ],
      "type": "VEC3"
    },
    {
      "bufferView": 1,
      "byteOffset": 1544632,
      "componentType": 5126,
      "count": 38276,
      "max": [
        0.9901700019836426,
        1.00600004196167
      ],
      "min": [
        0.003289999905973673,
        0.006639999803155661
      ],
      "type": "VEC2"
    },
    {
      "bufferView": 0,
      "byteOffset": 4115268,
      "componentType": 5125,
      "count": 173553,
      "type": "SCALAR"
    }
  ],
  "asset": {
    "extras": {
      "author": "nzo (https://sketchfab.com/nzo3d)",
      "license": "CC-BY-NC-4.0 (http://creativecommons.org/licenses/by-nc/4.0/)",
      "source": "https://sketchfab.com/3d-models/dino-4d4a25392cf04cc5854072108d6d6c17",
      "title": "Dino"
    },
    "generator": "Sketchfab-10.91.0",
    "version": "2.0"
  },
  "bufferViews": [
    {
      "buffer": 0,
      "byteLength": 4809480,
      "name": "floatBufferViews",
      "target": 34963
    },
    {
      "buffer": 0,
      "byteLength": 1850840,
      "byteOffset": 4809480,
      "byteStride": 8,
      "name": "floatBufferViews",
      "target": 34962
    },
    {
      "buffer": 0,
      "byteLength": 5552520,
      "byteOffset": 6660320,
      "byteStride": 12,
      "name": "floatBufferViews",
      "target": 34962
    }
  ],
  "buffers": [
    {
      "byteLength": 12212840,
      "uri": "scene.bin"
    }
  ],
  "images": [
    {
      "uri": "textures/dino_med1_baseColor.jpeg"
    },
    {
      "uri": "textures/dino_med_baseColor.jpeg"
    }
  ],
  "materials": [
    {
      "doubleSided": true,
      "name": "dino_med1",
      "pbrMetallicRoughness": {
        "baseColorTexture": {
          "index": 0
        },
        "metallicFactor": 0.0,
        "roughnessFactor": 0.6
      }
    },
    {
      "doubleSided": true,
      "name": "dino_med",
      "pbrMetallicRoughness": {
        "baseColorTexture": {
          "index": 1
        },
        "metallicFactor": 0.0,
        "roughnessFactor": 0.6
      }
    }
  ],
  "meshes": [
    {
      "name": "dino med_0",
      "primitives": [
        {
          "attributes": {
            "NORMAL": 1,
            "POSITION": 0,
            "TEXCOORD_0": 2
          },
          "indices": 3,
          "material": 0,
          "mode": 4
        }
      ]
    },
    {
      "name": "dino med_0",
      "primitives": [
        {
          "attributes": {
            "NORMAL": 5,
            "POSITION": 4,
            "TEXCOORD_0": 6
          },
          "indices": 7,
          "material": 0,
          "mode": 4
        }
      ]
    },
    {
      "name": "dino med_1",
      "primitives": [
        {
          "attributes": {
            "NORMAL": 9,
            "POSITION": 8,
            "TEXCOORD_0": 10
          },
          "indices": 11,
          "material": 1,
          "mode": 4
        }
      ]
    },
    {
      "name": "dino med_1",
      "primitives": [
        {
          "attributes": {
            "NORMAL": 13,
            "POSITION": 12,
            "TEXCOORD_0": 14
          },
          "indices": 15,
          "material": 1,
          "mode": 4
        }
      ]
    }
  ],
  "nodes": [
    {
      "children": [
        1
      ],
      "matrix": [
        1.0,
        0.0,
        0.0,
        0.0,
        0.0,
        2.220446049250313e-16,
        -1.0,
        0.0,
        0.0,
        1.0,
        2.220446049250313e-16,
        0.0,
        0.0,
        0.0,
        0.0,
        1.0
      ],
      "name": "Sketchfab_model"
    },
    {
      "children": [
        2
      ],
      "name": "Root"
    },
    {
      "children": [
        3,
        4,
        5,
        6
      ],
      "matrix": [
        -0.99993,
        -0.00022000000000000006,
        -0.011540000000000003,
        0.0,
        0.011060000000000002,
        0.26814,
        -0.9633200000000001,
        0.0,
        0.003310000000000001,
        -0.96338,
        -0.26812,
        0.0,
        0.046660000000000014,
        0.02335000000000001,
        0.45565,
        1.0
      ],
      "name": "dino med"
    },
    {
      "mesh": 0,
      "name": "dino med_0"
    },
    {
      "mesh": 1,
      "name": "dino med_0"
    },
    {
      "mesh": 2,
      "name": "dino med_1"
    },
    {
      "mesh": 3,
      "name": "dino med_1"
    }
  ],
  "samplers": [
    {
      "magFilter": 9729,
      "minFilter": 9987,
      "wrapS": 10497,
      "wrapT": 10497
    }
  ],
  "scene": 0,
  "scenes": [
    {
      "name": "Sketchfab_Scene",
      "nodes": [
        0
      ]
    }
  ],
  "textures": [
    {
      "sampler": 0,
      "source": 0
    },
    {
      "sampler": 0,
      "source": 1
    }
  ]
}
